<?xml version='1.0' encoding='UTF-8'?>
<svg width="54mm" height="54mm" version="1.1" viewBox="0 0 54 54" fill_color="(255, 255, 255)" back_color="(0, 0, 0)" xmlns="http://www.w3.org/2000/svg"><path d="M2,2H4V4H2zM4,2H6V4H4zM6,2H8V4H6zM8,2H10V4H8zM10,2H12V4H10zM12,2H14V4H12zM14,2H16V4H14zM18,2H20V4H18zM24,2H26V4H24zM26,2H28V4H26zM28,2H30V4H28zM38,2H40V4H38zM40,2H42V4H40zM42,2H44V4H42zM44,2H46V4H44zM46,2H48V4H46zM48,2H50V4H48zM50,2H52V4H50zM2,4H4V6H2zM14,4H16V6H14zM18,4H20V6H18zM20,4H22V6H20zM22,4H24V6H22zM26,4H28V6H26zM30,4H32V6H30zM38,4H40V6H38zM50,4H52V6H50zM2,6H4V8H2zM6,6H8V8H6zM8,6H10V8H8zM10,6H12V8H10zM14,6H16V8H14zM22,6H24V8H22zM24,6H26V8H24zM26,6H28V8H26zM28,6H30V8H28zM32,6H34V8H32zM38,6H40V8H38zM42,6H44V8H42zM44,6H46V8H44zM46,6H48V8H46zM50,6H52V8H50zM2,8H4V10H2zM6,8H8V10H6zM8,8H10V10H8zM10,8H12V10H10zM14,8H16V10H14zM22,8H24V10H22zM28,8H30V10H28zM38,8H40V10H38zM42,8H44V10H42zM44,8H46V10H44zM46,8H48V10H46zM50,8H52V10H50zM2,10H4V12H2zM6,10H8V12H6zM8,10H10V12H8zM10,10H12V12H10zM14,10H16V12H14zM18,10H20V12H18zM20,10H22V12H20zM22,10H24V12H22zM24,10H26V12H24zM30,10H32V12H30zM38,10H40V12H38zM42,10H44V12H42zM44,10H46V12H44zM46,10H48V12H46zM50,10H52V12H50zM2,12H4V14H2zM14,12H16V14H14zM18,12H20V14H18zM24,12H26V14H24zM28,12H30V14H28zM30,12H32V14H30zM34,12H36V14H34zM38,12H40V14H38zM50,12H52V14H50zM2,14H4V16H2zM4,14H6V16H4zM6,14H8V16H6zM8,14H10V16H8zM10,14H12V16H10zM12,14H14V16H12zM14,14H16V16H14zM18,14H20V16H18zM22,14H24V16H22zM26,14H28V16H26zM30,14H32V16H30zM34,14H36V16H34zM38,14H40V16H38zM40,14H42V16H40zM42,14H44V16H42zM44,14H46V16H44zM46,14H48V16H46zM48,14H50V16H48zM50,14H52V16H50zM18,16H20V18H18zM22,16H24V18H22zM24,16H26V18H24zM26,16H28V18H26zM34,16H36V18H34zM2,18H4V20H2zM4,18H6V20H4zM6,18H8V20H6zM12,18H14V20H12zM14,18H16V20H14zM18,18H20V20H18zM20,18H22V20H20zM22,18H24V20H22zM32,18H34V20H32zM34,18H36V20H34zM36,18H38V20H36zM38,18H40V20H38zM40,18H42V20H40zM42,18H44V20H42zM48,18H50V20H48zM50,18H52V20H50zM2,20H4V22H2zM6,20H8V22H6zM8,20H10V22H8zM10,20H12V22H10zM18,20H20V22H18zM20,20H22V22H20zM22,20H24V22H22zM30,20H32V22H30zM32,20H34V22H32zM34,20H36V22H34zM36,20H38V22H36zM38,20H40V22H38zM40,20H42V22H40zM44,20H46V22H44zM48,20H50V22H48zM50,20H52V22H50zM2,22H4V24H2zM8,22H10V24H8zM12,22H14V24H12zM14,22H16V24H14zM18,22H20V24H18zM24,22H26V24H24zM30,22H32V24H30zM32,22H34V24H32zM34,22H36V24H34zM38,22H40V24H38zM44,22H46V24H44zM46,22H48V24H46zM50,22H52V24H50zM2,24H4V26H2zM4,24H6V26H4zM6,24H8V26H6zM8,24H10V26H8zM20,24H22V26H20zM30,24H32V26H30zM32,24H34V26H32zM34,24H36V26H34zM36,24H38V26H36zM38,24H40V26H38zM40,24H42V26H40zM44,24H46V26H44zM6,26H8V28H6zM10,26H12V28H10zM14,26H16V28H14zM16,26H18V28H16zM20,26H22V28H20zM24,26H26V28H24zM26,26H28V28H26zM34,26H36V28H34zM38,26H40V28H38zM50,26H52V28H50zM4,28H6V30H4zM6,28H8V30H6zM10,28H12V30H10zM20,28H22V30H20zM26,28H28V30H26zM32,28H34V30H32zM36,28H38V30H36zM38,28H40V30H38zM40,28H42V30H40zM48,28H50V30H48zM50,28H52V30H50zM2,30H4V32H2zM4,30H6V32H4zM6,30H8V32H6zM8,30H10V32H8zM12,30H14V32H12zM14,30H16V32H14zM26,30H28V32H26zM28,30H30V32H28zM30,30H32V32H30zM32,30H34V32H32zM38,30H40V32H38zM44,30H46V32H44zM46,30H48V32H46zM50,30H52V32H50zM6,32H8V34H6zM10,32H12V34H10zM12,32H14V34H12zM16,32H18V34H16zM22,32H24V34H22zM24,32H26V34H24zM26,32H28V34H26zM30,32H32V34H30zM34,32H36V34H34zM36,32H38V34H36zM38,32H40V34H38zM40,32H42V34H40zM42,32H44V34H42zM44,32H46V34H44zM2,34H4V36H2zM4,34H6V36H4zM10,34H12V36H10zM14,34H16V36H14zM16,34H18V36H16zM18,34H20V36H18zM20,34H22V36H20zM22,34H24V36H22zM28,34H30V36H28zM30,34H32V36H30zM32,34H34V36H32zM34,34H36V36H34zM36,34H38V36H36zM38,34H40V36H38zM40,34H42V36H40zM42,34H44V36H42zM48,34H50V36H48zM18,36H20V38H18zM20,36H22V38H20zM28,36H30V38H28zM32,36H34V38H32zM34,36H36V38H34zM42,36H44V38H42zM50,36H52V38H50zM2,38H4V40H2zM4,38H6V40H4zM6,38H8V40H6zM8,38H10V40H8zM10,38H12V40H10zM12,38H14V40H12zM14,38H16V40H14zM20,38H22V40H20zM22,38H24V40H22zM24,38H26V40H24zM34,38H36V40H34zM38,38H40V40H38zM42,38H44V40H42zM50,38H52V40H50zM2,40H4V42H2zM14,40H16V42H14zM18,40H20V42H18zM22,40H24V42H22zM28,40H30V42H28zM32,40H34V42H32zM34,40H36V42H34zM42,40H44V42H42zM48,40H50V42H48zM2,42H4V44H2zM6,42H8V44H6zM8,42H10V44H8zM10,42H12V44H10zM14,42H16V44H14zM20,42H22V44H20zM22,42H24V44H22zM24,42H26V44H24zM26,42H28V44H26zM28,42H30V44H28zM32,42H34V44H32zM34,42H36V44H34zM36,42H38V44H36zM38,42H40V44H38zM40,42H42V44H40zM42,42H44V44H42zM50,42H52V44H50zM2,44H4V46H2zM6,44H8V46H6zM8,44H10V46H8zM10,44H12V46H10zM14,44H16V46H14zM22,44H24V46H22zM26,44H28V46H26zM34,44H36V46H34zM42,44H44V46H42zM46,44H48V46H46zM48,44H50V46H48zM2,46H4V48H2zM6,46H8V48H6zM8,46H10V48H8zM10,46H12V48H10zM14,46H16V48H14zM18,46H20V48H18zM20,46H22V48H20zM26,46H28V48H26zM28,46H30V48H28zM30,46H32V48H30zM32,46H34V48H32zM36,46H38V48H36zM40,46H42V48H40zM42,46H44V48H42zM44,46H46V48H44zM48,46H50V48H48zM50,46H52V48H50zM2,48H4V50H2zM14,48H16V50H14zM18,48H20V50H18zM20,48H22V50H20zM24,48H26V50H24zM26,48H28V50H26zM30,48H32V50H30zM34,48H36V50H34zM36,48H38V50H36zM38,48H40V50H38zM40,48H42V50H40zM42,48H44V50H42zM2,50H4V52H2zM4,50H6V52H4zM6,50H8V52H6zM8,50H10V52H8zM10,50H12V52H10zM12,50H14V52H12zM14,50H16V52H14zM18,50H20V52H18zM20,50H22V52H20zM22,50H24V52H22zM28,50H30V52H28zM30,50H32V52H30zM34,50H36V52H34zM36,50H38V52H36zM44,50H46V52H44zM50,50H52V52H50z" id="qr-path" fill="#000000" fill-opacity="1" fill-rule="nonzero" stroke="none" /></svg>